<svg width="95" height="72" viewBox="0 0 95 72" fill="none" xmlns="http://www.w3.org/2000/svg">
<path d="M53.7563 72C53.0181 69.7441 52.1792 67.4256 51.2396 65.0444C50.3672 62.6632 49.4947 60.282 48.6223 57.9008H21.4421C20.5697 60.282 19.6637 62.6632 18.7241 65.0444C17.8517 67.4256 17.0463 69.7441 16.3081 72H0C2.61735 64.9817 5.10047 58.4961 7.44938 52.5431C9.79828 46.5901 12.0801 40.9817 14.2948 35.718C16.5765 30.4543 18.7912 25.4726 20.9388 20.7728C23.1535 16.0104 25.4353 11.3734 27.7842 6.86162H42.7836C45.0654 11.3734 47.3136 16.0104 49.5283 20.7728C51.743 25.4726 53.9576 30.4543 56.1723 35.718C58.4541 40.9817 60.7695 46.5901 63.1184 52.5431C65.4673 58.4961 67.9504 64.9817 70.5677 72H53.7563ZM34.9315 21.6188C34.596 22.5587 34.0926 23.8433 33.4215 25.4726C32.7504 27.1018 31.9786 28.9817 31.1062 31.1123C30.2337 33.2428 29.2606 35.5927 28.1868 38.1619C27.1802 40.7311 26.1399 43.4256 25.0661 46.2454H44.8976C43.8238 43.4256 42.7836 40.7311 41.7769 38.1619C40.7702 35.5927 39.7971 33.2428 38.8576 31.1123C37.9851 28.9817 37.2133 27.1018 36.5422 25.4726C35.8711 23.8433 35.3342 22.5587 34.9315 21.6188Z" fill="#F24E1E"/>
<path d="M93.5907 72H78.5912V22.5587H93.5907V72ZM95 8.27154C95 10.8407 94.094 12.8773 92.282 14.3812C90.5371 15.8225 88.4566 16.5431 86.0406 16.5431C83.6246 16.5431 81.5106 15.8225 79.6986 14.3812C77.9537 12.8773 77.0812 10.8407 77.0812 8.27154C77.0812 5.70235 77.9537 3.69713 79.6986 2.25587C81.5106 0.751958 83.6246 0 86.0406 0C88.4566 0 90.5371 0.751958 92.282 2.25587C94.094 3.69713 95 5.70235 95 8.27154Z" fill="#F24E1E"/>
</svg>
