<svg width="75" height="76" viewBox="0 0 75 76" fill="none" xmlns="http://www.w3.org/2000/svg">
<path d="M50 75.1666H25C11.1938 75.1666 0 63.9729 0 50.1666V25.1666C0 11.3604 11.1938 0.166626 25 0.166626H75V50.1666C75 63.9729 63.8063 75.1666 50 75.1666Z" fill="url(#paint0_linear_8410_35)"/>
<path d="M50 75.8333H25C11.1938 75.8333 0 64.6395 0 50.8333V46.6666H75V50.8333C75 64.6395 63.8063 75.8333 50 75.8333Z" fill="url(#paint1_linear_8410_35)"/>
<path opacity="0.05" d="M75 35H0V47.5H75V35Z" fill="black"/>
<path opacity="0.07" d="M75 38H0V50.5H75V38Z" fill="black"/>
<path opacity="0.05" d="M61.8833 51.9562L61.1604 47.8625L27.4792 14.1812C25.9042 12.6063 23.1583 12.6063 21.5875 14.1812L14.2208 21.5458C13.4333 22.3333 13 23.3813 13 24.4958C13 25.6083 13.4333 26.6542 14.2208 27.4375L47.9104 61.1292L63.9708 63.8146L61.8833 51.9562Z" fill="black"/>
<path opacity="0.07" d="M61.15 45.3365L27.7 11.8844C26.5188 10.7052 24.4583 10.7052 23.2813 11.8844L15.9146 19.249C15.3229 19.8385 15 20.626 15 21.4615C15 22.2969 15.325 23.0802 15.9146 23.6698L49.3688 57.126L55.15 58.0948L63.6458 59.5135L61.15 45.3365Z" fill="black"/>
<path d="M61.4422 54.2214L62.3255 59.2318L57.2776 58.388L61.4422 54.2214ZM16.6109 23.9234L49.8297 57.1422L54.7526 57.9651L61.0026 51.7151L60.1422 46.8297L26.9234 13.6109C26.1089 12.7964 24.7901 12.7964 23.9776 13.6109L16.6109 20.9776C15.7964 21.7901 15.7964 23.1109 16.6109 23.9234Z" fill="url(#paint2_linear_8410_35)"/>
<defs>
<linearGradient id="paint0_linear_8410_35" x1="43.8917" y1="2.77913" x2="35.5583" y2="48.2645" gradientUnits="userSpaceOnUse">
<stop stop-color="#80E81F"/>
<stop offset="0.339" stop-color="#67D326"/>
<stop offset="1" stop-color="#088242"/>
</linearGradient>
<linearGradient id="paint1_linear_8410_35" x1="36.5083" y1="74.4458" x2="37.55" y2="47.7104" gradientUnits="userSpaceOnUse">
<stop stop-color="#80E81F"/>
<stop offset="0.258" stop-color="#71DF21"/>
<stop offset="1" stop-color="#05A333"/>
</linearGradient>
<linearGradient id="paint2_linear_8410_35" x1="46.4693" y1="33.1026" x2="36.0526" y2="43.5193" gradientUnits="userSpaceOnUse">
<stop offset="0.305" stop-color="#F5FCFF"/>
<stop offset="0.704" stop-color="#D3E6D3"/>
<stop offset="0.865" stop-color="#A4CBA5"/>
</linearGradient>
</defs>
</svg>
