<svg width="405" height="224" viewBox="0 0 405 224" fill="none" xmlns="http://www.w3.org/2000/svg">
<path d="M193.667 26.3067L192.451 15.3256C176.133 10.3549 158.732 22.6968 148.151 36.683C142.11 44.8102 137.114 53.8256 142.262 61.9528C133.789 69.7775 133.789 87.0713 142.262 95.0473C137.114 103.174 142.11 112.19 148.151 120.317C158.447 133.85 171.592 142.733 185.194 142.733C199.252 142.733 210.593 131.147 210.593 117.009V106.331C210.593 99.1108 207.876 95.0473 202.576 89.4906L194.559 80.9098C194.711 80.1538 194.711 79.549 194.711 78.8119C194.711 72.9528 190.475 68.738 184.586 68.738C179.001 68.738 174.613 72.9528 174.613 78.8119C174.613 84.0851 179.001 88.4321 184.586 88.4321C185.346 88.4321 185.954 88.2809 186.391 88.2809L194.711 97.0129C197.884 100.472 199.404 103.023 199.404 107.238V117.009C199.404 129.2 189.43 134.303 178.393 130.24C170.985 127.537 163.424 121.961 156.471 112.946C150.278 104.365 151.627 100.32 155.103 97.9012C158.124 96.1057 161.296 96.3892 166.748 103.174C166.463 104.063 166.311 105.121 166.311 106.18C166.311 111.736 170.852 116.253 176.285 116.253C181.718 116.253 186.106 111.736 186.106 106.18C186.106 100.774 181.718 96.2569 176.285 96.2569H175.525C169.028 87.9785 161.163 82.2706 150.278 87.9785C146.346 84.5198 146.954 72.1779 150.278 69.0215C161.163 74.7294 169.028 69.0215 175.525 60.7431H176.285C181.718 60.7431 186.106 56.226 186.106 50.8205C186.106 45.2638 181.718 40.7466 176.285 40.7466C170.852 40.7466 166.311 45.2638 166.311 50.8205C166.311 51.8789 166.463 52.9184 166.767 53.8256C161.334 60.5919 158.143 60.8944 155.122 59.0988C151.646 56.6985 150.278 52.6349 156.49 44.0542C165.096 32.9219 179.913 20.75 193.667 26.3067ZM211.333 130.693L212.549 141.674C228.867 146.645 246.268 134.303 256.849 120.317C262.89 112.19 267.886 103.174 262.738 95.0473C271.211 87.2225 271.211 69.9287 262.738 61.9528C267.886 53.8256 262.89 44.8102 256.849 36.683C246.553 23.1504 233.407 14.2861 219.806 14.2861C205.748 14.2861 194.407 25.872 194.407 40.0095V50.6882C194.407 57.9081 197.124 61.9717 202.424 67.5284L210.441 76.1091C210.289 76.8651 210.289 77.4699 210.289 78.2071C210.289 84.0662 214.525 88.2809 220.414 88.2809C225.999 88.2809 230.387 84.0662 230.387 78.2071C230.387 72.9339 225.999 68.5868 220.414 68.5868C219.654 68.5868 219.046 68.738 218.609 68.738L210.289 60.006C207.116 56.5473 205.596 53.9957 205.596 49.781V40.0095C205.596 27.8188 215.57 22.7157 226.607 26.7792C234.015 29.482 241.576 35.0576 248.529 44.0731C254.722 52.6538 253.373 56.6985 249.897 59.1177C246.876 60.9133 243.704 60.6297 238.252 53.8445C238.556 52.9373 238.708 51.8978 238.708 50.8394C238.708 45.2827 234.167 40.7655 228.734 40.7655C223.301 40.7655 218.913 45.2827 218.913 50.8394C218.913 56.2449 223.301 60.7621 228.734 60.7621H229.494C235.991 69.0404 243.856 74.7483 254.741 69.0404C258.673 72.4992 258.065 84.8411 254.741 87.9974C243.856 82.2895 235.991 87.9974 229.494 96.2758H228.734C223.301 96.2758 218.913 100.793 218.913 106.198C218.913 111.755 223.301 116.272 228.734 116.272C234.167 116.272 238.708 111.755 238.708 106.198C238.708 105.14 238.556 104.101 238.252 103.193C243.685 96.427 246.876 96.1246 249.897 97.9201C253.373 100.32 254.741 104.384 248.529 112.965C239.904 124.078 225.087 136.25 211.333 130.693Z" fill="#191816"/>
<path d="M54.3217 198.347C51.7805 198.347 49.4382 197.949 47.295 197.153C45.1824 196.327 43.3301 195.163 41.738 193.663C40.1765 192.163 38.9518 190.402 38.0639 188.382C37.2066 186.361 36.778 184.141 36.778 181.722C36.778 179.303 37.2066 177.084 38.0639 175.063C38.9518 173.042 40.1918 171.282 41.7839 169.781C43.376 168.281 45.2437 167.133 47.3869 166.337C49.5301 165.51 51.8876 165.097 54.4595 165.097C57.3069 165.097 59.8634 165.572 62.1291 166.521C64.4254 167.47 66.3543 168.848 67.9158 170.654L63.1395 175.063C61.976 173.838 60.7054 172.935 59.3276 172.353C57.9498 171.741 56.4496 171.435 54.8269 171.435C53.2654 171.435 51.8417 171.68 50.5558 172.17C49.2698 172.66 48.1523 173.364 47.2032 174.282C46.2846 175.201 45.5651 176.288 45.0446 177.543C44.5548 178.798 44.3098 180.191 44.3098 181.722C44.3098 183.222 44.5548 184.6 45.0446 185.856C45.5651 187.111 46.2846 188.213 47.2032 189.162C48.1523 190.081 49.2545 190.785 50.5098 191.275C51.7958 191.765 53.2042 192.01 54.735 192.01C56.2047 192.01 57.6284 191.78 59.0061 191.321C60.4145 190.831 61.777 190.02 63.0935 188.887L67.3187 194.26C65.5736 195.577 63.5375 196.587 61.2106 197.291C58.9143 197.995 56.618 198.347 54.3217 198.347ZM60.5217 193.296V181.217H67.3187V194.26L60.5217 193.296ZM85.9869 198.164C83.1701 198.164 80.6901 197.613 78.5469 196.51C76.4343 195.408 74.7963 193.908 73.6328 192.01C72.4694 190.081 71.8876 187.892 71.8876 185.442C71.8876 182.962 72.4541 180.773 73.5869 178.875C74.7504 176.946 76.3272 175.446 78.3173 174.374C80.3074 173.272 82.5578 172.721 85.0684 172.721C87.4872 172.721 89.661 173.241 91.5899 174.282C93.5494 175.293 95.0956 176.762 96.2284 178.691C97.3612 180.589 97.9277 182.87 97.9277 185.534C97.9277 185.81 97.9124 186.131 97.8817 186.499C97.8511 186.835 97.8205 187.157 97.7899 187.463H77.7202V183.284H94.024L91.2684 184.524C91.2684 183.238 91.0082 182.12 90.4877 181.171C89.9672 180.222 89.2477 179.487 88.3291 178.967C87.4106 178.416 86.339 178.14 85.1143 178.14C83.8896 178.14 82.8027 178.416 81.8536 178.967C80.9351 179.487 80.2156 180.237 79.6951 181.217C79.1746 182.166 78.9143 183.299 78.9143 184.616V185.718C78.9143 187.065 79.2052 188.259 79.7869 189.3C80.3993 190.31 81.2412 191.091 82.3128 191.642C83.4151 192.163 84.701 192.423 86.1706 192.423C87.4872 192.423 88.6353 192.224 89.6151 191.826C90.6254 191.428 91.544 190.831 92.3706 190.035L96.1825 194.168C95.0496 195.454 93.6259 196.449 91.9114 197.153C90.1968 197.827 88.222 198.164 85.9869 198.164ZM114.96 198.164C112.143 198.164 109.663 197.613 107.52 196.51C105.407 195.408 103.769 193.908 102.606 192.01C101.442 190.081 100.86 187.892 100.86 185.442C100.86 182.962 101.427 180.773 102.56 178.875C103.723 176.946 105.3 175.446 107.29 174.374C109.28 173.272 111.531 172.721 114.041 172.721C116.46 172.721 118.634 173.241 120.563 174.282C122.522 175.293 124.068 176.762 125.201 178.691C126.334 180.589 126.9 182.87 126.9 185.534C126.9 185.81 126.885 186.131 126.855 186.499C126.824 186.835 126.793 187.157 126.763 187.463H106.693V183.284H122.997L120.241 184.524C120.241 183.238 119.981 182.12 119.46 181.171C118.94 180.222 118.22 179.487 117.302 178.967C116.383 178.416 115.312 178.14 114.087 178.14C112.862 178.14 111.776 178.416 110.826 178.967C109.908 179.487 109.188 180.237 108.668 181.217C108.147 182.166 107.887 183.299 107.887 184.616V185.718C107.887 187.065 108.178 188.259 108.76 189.3C109.372 190.31 110.214 191.091 111.286 191.642C112.388 192.163 113.674 192.423 115.143 192.423C116.46 192.423 117.608 192.224 118.588 191.826C119.598 191.428 120.517 190.831 121.343 190.035L125.155 194.168C124.022 195.454 122.599 196.449 120.884 197.153C119.17 197.827 117.195 198.164 114.96 198.164ZM137.595 192.744L137.778 184.019L149.306 173.088H157.848L146.78 184.34L143.06 187.371L137.595 192.744ZM131.67 197.796V163.719H138.835V197.796H131.67ZM150.087 197.796L141.728 187.417L146.229 181.86L158.767 197.796H150.087ZM176.593 198.164C174.419 198.164 172.552 197.704 170.99 196.786C169.429 195.867 168.235 194.474 167.408 192.607C166.581 190.708 166.168 188.32 166.168 185.442C166.168 182.534 166.597 180.145 167.454 178.278C168.342 176.41 169.566 175.017 171.128 174.099C172.689 173.18 174.511 172.721 176.593 172.721C178.92 172.721 181.002 173.241 182.839 174.282C184.707 175.323 186.176 176.793 187.248 178.691C188.35 180.589 188.901 182.84 188.901 185.442C188.901 188.014 188.35 190.249 187.248 192.147C186.176 194.046 184.707 195.531 182.839 196.602C181.002 197.643 178.92 198.164 176.593 198.164ZM161.989 197.796V163.719H169.153V178.094L168.694 185.396L168.832 192.744V197.796H161.989ZM175.353 192.285C176.547 192.285 177.603 192.01 178.522 191.459C179.471 190.907 180.221 190.127 180.772 189.116C181.354 188.075 181.645 186.851 181.645 185.442C181.645 184.003 181.354 182.779 180.772 181.768C180.221 180.758 179.471 179.977 178.522 179.426C177.603 178.875 176.547 178.599 175.353 178.599C174.159 178.599 173.087 178.875 172.138 179.426C171.189 179.977 170.439 180.758 169.888 181.768C169.337 182.779 169.061 184.003 169.061 185.442C169.061 186.851 169.337 188.075 169.888 189.116C170.439 190.127 171.189 190.907 172.138 191.459C173.087 192.01 174.159 192.285 175.353 192.285ZM193.697 197.796V173.088H200.54V180.069L199.576 178.048C200.311 176.303 201.489 174.986 203.112 174.099C204.735 173.18 206.71 172.721 209.037 172.721V179.334C208.73 179.303 208.455 179.288 208.21 179.288C207.965 179.258 207.705 179.242 207.429 179.242C205.47 179.242 203.878 179.809 202.653 180.941C201.459 182.044 200.862 183.774 200.862 186.131V197.796H193.697ZM226.838 197.796V192.974L226.378 191.918V183.284C226.378 181.753 225.904 180.559 224.955 179.701C224.036 178.844 222.612 178.416 220.683 178.416C219.367 178.416 218.066 178.63 216.78 179.059C215.524 179.457 214.453 180.008 213.565 180.712L210.993 175.706C212.34 174.757 213.963 174.022 215.861 173.501C217.759 172.981 219.688 172.721 221.648 172.721C225.414 172.721 228.338 173.609 230.42 175.384C232.502 177.16 233.543 179.931 233.543 183.697V197.796H226.838ZM219.306 198.164C217.377 198.164 215.723 197.842 214.346 197.199C212.968 196.526 211.912 195.622 211.177 194.49C210.442 193.357 210.075 192.086 210.075 190.678C210.075 189.208 210.427 187.922 211.131 186.82C211.866 185.718 213.014 184.861 214.575 184.248C216.137 183.605 218.173 183.284 220.683 183.284H227.251V187.463H221.464C219.78 187.463 218.617 187.739 217.974 188.29C217.361 188.841 217.055 189.53 217.055 190.356C217.055 191.275 217.407 192.01 218.112 192.561C218.846 193.081 219.841 193.342 221.097 193.342C222.291 193.342 223.362 193.066 224.312 192.515C225.261 191.933 225.95 191.091 226.378 189.989L227.48 193.296C226.96 194.888 226.011 196.097 224.633 196.924C223.255 197.75 221.479 198.164 219.306 198.164ZM240.027 197.796V173.088H247.191V197.796H240.027ZM243.609 169.644C242.293 169.644 241.221 169.261 240.394 168.496C239.568 167.73 239.154 166.781 239.154 165.648C239.154 164.515 239.568 163.566 240.394 162.801C241.221 162.035 242.293 161.653 243.609 161.653C244.926 161.653 245.997 162.02 246.824 162.755C247.651 163.459 248.064 164.378 248.064 165.51C248.064 166.704 247.651 167.7 246.824 168.496C246.028 169.261 244.956 169.644 243.609 169.644ZM268.858 172.721C270.818 172.721 272.563 173.119 274.094 173.915C275.655 174.68 276.88 175.874 277.768 177.497C278.656 179.089 279.1 181.141 279.1 183.651V197.796H271.935V184.753C271.935 182.763 271.491 181.294 270.604 180.344C269.746 179.395 268.522 178.921 266.929 178.921C265.797 178.921 264.771 179.166 263.852 179.656C262.965 180.115 262.26 180.834 261.74 181.814C261.25 182.794 261.005 184.049 261.005 185.58V197.796H253.841V173.088H260.684V179.931L259.398 177.864C260.285 176.211 261.556 174.941 263.209 174.053C264.863 173.165 266.746 172.721 268.858 172.721ZM293.907 198.164C291.794 198.164 289.758 197.919 287.798 197.429C285.87 196.908 284.339 196.265 283.206 195.5L285.594 190.356C286.727 191.061 288.059 191.642 289.59 192.102C291.151 192.53 292.682 192.744 294.182 192.744C295.836 192.744 296.999 192.545 297.673 192.147C298.377 191.749 298.729 191.198 298.729 190.494C298.729 189.912 298.453 189.484 297.902 189.208C297.382 188.902 296.678 188.672 295.79 188.519C294.902 188.366 293.922 188.213 292.85 188.06C291.809 187.907 290.753 187.708 289.681 187.463C288.61 187.187 287.63 186.789 286.742 186.269C285.854 185.748 285.135 185.044 284.584 184.156C284.063 183.268 283.803 182.12 283.803 180.712C283.803 179.15 284.247 177.773 285.135 176.579C286.053 175.384 287.37 174.451 289.084 173.777C290.799 173.073 292.85 172.721 295.238 172.721C296.922 172.721 298.637 172.904 300.382 173.272C302.127 173.639 303.582 174.175 304.745 174.879L302.357 179.977C301.163 179.273 299.954 178.798 298.729 178.553C297.535 178.278 296.371 178.14 295.238 178.14C293.646 178.14 292.483 178.354 291.748 178.783C291.013 179.212 290.646 179.763 290.646 180.436C290.646 181.049 290.906 181.508 291.427 181.814C291.978 182.12 292.697 182.365 293.585 182.549C294.473 182.733 295.438 182.901 296.478 183.054C297.55 183.177 298.622 183.376 299.693 183.651C300.765 183.927 301.729 184.325 302.587 184.845C303.475 185.335 304.194 186.024 304.745 186.912C305.296 187.769 305.572 188.902 305.572 190.31C305.572 191.841 305.113 193.204 304.194 194.398C303.276 195.561 301.944 196.48 300.198 197.153C298.484 197.827 296.387 198.164 293.907 198.164ZM312.702 198.164C311.477 198.164 310.421 197.75 309.533 196.924C308.676 196.066 308.247 194.98 308.247 193.663C308.247 192.346 308.676 191.29 309.533 190.494C310.421 189.667 311.477 189.254 312.702 189.254C313.957 189.254 315.013 189.667 315.871 190.494C316.728 191.29 317.157 192.346 317.157 193.663C317.157 194.98 316.728 196.066 315.871 196.924C315.013 197.75 313.957 198.164 312.702 198.164ZM322.012 197.796V173.088H328.855V180.069L327.89 178.048C328.625 176.303 329.804 174.986 331.427 174.099C333.049 173.18 335.024 172.721 337.351 172.721V179.334C337.045 179.303 336.769 179.288 336.524 179.288C336.28 179.258 336.019 179.242 335.744 179.242C333.784 179.242 332.192 179.809 330.967 180.941C329.773 182.044 329.176 183.774 329.176 186.131V197.796H322.012ZM352.216 198.164C350.164 198.164 348.327 197.766 346.705 196.97C345.113 196.174 343.873 194.964 342.985 193.342C342.097 191.688 341.653 189.591 341.653 187.05V173.088H348.817V185.993C348.817 188.045 349.246 189.56 350.103 190.54C350.991 191.489 352.231 191.964 353.823 191.964C354.925 191.964 355.905 191.734 356.762 191.275C357.62 190.785 358.293 190.05 358.783 189.07C359.273 188.06 359.518 186.805 359.518 185.304V173.088H366.682V197.796H359.885V190.999L361.125 192.974C360.299 194.689 359.074 195.99 357.451 196.878C355.859 197.735 354.114 198.164 352.216 198.164Z" fill="black"/>
</svg>
