<svg width="82" height="58" viewBox="0 0 82 58" fill="none" xmlns="http://www.w3.org/2000/svg">
<path d="M0 57.3446V0H21.4852C25.9288 0 29.7579 0.846518 32.9724 2.53955C36.1869 4.17797 38.6687 6.55367 40.4178 9.66667C42.1669 12.7797 43.0414 16.4934 43.0414 20.8079C43.0414 25.0678 42.1669 28.7542 40.4178 31.8672C38.6687 34.9802 36.1869 37.3832 32.9724 39.0763C29.7579 40.7147 25.9288 41.5339 21.4852 41.5339H6.38175L11.4872 35.5537V57.3446H0ZM11.4872 37.0283L6.38175 30.7203H20.8471C24.3925 30.7203 27.0397 29.8465 28.7888 28.0989C30.5379 26.3512 31.4124 23.9209 31.4124 20.8079C31.4124 17.6403 30.5379 15.1827 28.7888 13.435C27.0397 11.6874 24.3925 10.8136 20.8471 10.8136H6.38175L11.4872 4.50565V37.0283Z" fill="#31A8FF"/>
<path d="M63.9893 58C60.7275 58 57.5839 57.5631 54.5585 56.6893C51.5803 55.7608 49.2167 54.6139 47.4676 53.2486L51.1549 44.0734C52.9039 45.3296 54.9603 46.3672 57.3239 47.1864C59.7348 47.951 62.0984 48.3333 64.4147 48.3333C66.9674 48.3333 68.7638 47.9783 69.8038 47.2684C70.891 46.5584 71.4346 45.5753 71.4346 44.3192C71.4346 43.2815 71.0092 42.5169 70.1583 42.0254C69.3547 41.4793 68.2674 41.0697 66.8965 40.7966C65.5256 40.5235 64.0129 40.2505 62.3584 39.9774C60.7511 39.7043 59.1202 39.3493 57.4657 38.9124C55.8112 38.4209 54.2985 37.7109 52.9276 36.7825C51.5567 35.8541 50.4458 34.5979 49.5949 33.0141C48.7912 31.4303 48.3894 29.3823 48.3894 26.8701C48.3894 24.0847 49.0749 21.6271 50.4458 19.4972C51.8639 17.3672 53.8966 15.7015 56.5439 14.5C59.1911 13.2439 62.3584 12.6158 66.0456 12.6158C68.6456 12.6158 71.2928 12.9435 73.9874 13.5989C76.6819 14.2542 78.9273 15.21 80.7236 16.4661L77.0364 25.5593C75.1928 24.3032 73.3255 23.4567 71.4346 23.0198C69.591 22.5282 67.7947 22.2825 66.0456 22.2825C63.5875 22.2825 61.7911 22.6648 60.6566 23.4294C59.522 24.194 58.9548 25.177 58.9548 26.3785C58.9548 27.4708 59.3566 28.29 60.1602 28.8362C61.0111 29.3823 62.122 29.8192 63.4929 30.1469C64.8638 30.4746 66.3529 30.775 67.9601 31.048C69.6147 31.2665 71.2692 31.6215 72.9237 32.113C74.5783 32.6045 76.0673 33.3145 77.391 34.2429C78.7618 35.1168 79.8727 36.3456 80.7236 37.9294C81.5745 39.4586 82 41.4793 82 43.9915C82 46.7222 81.2909 49.1525 79.8727 51.2825C78.4546 53.3578 76.3982 54.9962 73.7037 56.1977C71.0565 57.3992 67.8183 58 63.9893 58Z" fill="#31A8FF"/>
</svg>
